<svg height="40" viewBox="0 0 137 40" width="137" xmlns="http://www.w3.org/2000/svg"><g fill="none" fill-rule="evenodd"><g transform="translate(99)"><path d="m6.20710678 4.08578644v1.41421356h-1.41421356c-.55228475 0-1 .44771525-1 1s.44771525 1 1 1h2c.32111733 0 .61521578-.15118552.80359926-.40461826l.08783347-.11816257.11816258-.08783347c.25343273-.18838348.40461825-.48248193.40461825-.80359926v-2c0-.55228475-.44771525-1-1-1s-1 .44771525-1 1z" fill="#a32b22" stroke="#a32b22" stroke-width="2" transform="matrix(.70710678 .70710678 -.70710678 .70710678 5.5 -2.692388)"/><g fill="#333"><path d="m3.5 38.6936159c-.82842712 0-1.40050773-.6715729-1.27777779-1.5l3.16423752-21.3586043c-.04566752-.2112747-.08969266-1.1415308-.99760885-1.1413957-.77776517 0-1.55553033 0-2.3332955 0-.82842712 0-1.40050773-.6715729-1.27777779-1.5.12272996-.8284278.89379511-1.5000007 1.72222223-1.5000007l4.65413192-.0000007c.05848889.0000001.11569997.0033476.17147894.0098617.05770519-.0065132.11590421-.0098603.17438912-.0098603h1c.82842713 0 1.40050773.6715729 1.27777779 1.5l-3.21902014 21.728387c.19537699.6201102.49276005.8773146.89214916.771613h2.49353781c.82842708 0 1.40050768.6715729 1.27777778 1.5s-.8937951 1.5-1.7222222 1.5h-5z"/><path d="m17.6783409 2.56066017c1.3725124-.31435622 15.6821391-.49648432 16.2563385 0 3.4891484.8847862 6.113415 10.75597713-1.4766455 17.23263903-5.3507685.1680888-9.4858453.2142077-12.4052304.1383567-1.0700786.1983808-1.6649619.842761-1.7846498 1.9331407-.1795319 1.6355696-1.0941691 9.9680893-1.2083355 11.0081671-.1141664 1.0400779.4596499 1.6589912 1.3903516 1.6589912h10.6526514c.5961422 0 1.7769843-.3606931 1.9194948-1.6589912.095007-.865532.3103875-2.8276895.6461415-5.8864725.4466996-.978942 1.1319861-1.144948 2.0558596-.4980179 1.3858102.9703952 3.4065115 2.9803368 2.9186808 7.4245683-.3252205 2.962821-1.7446888 4.5563457-4.2584049 4.7805743h-16.6554924c-2.0773688-.1992117-2.9747154-1.586432-2.6920398-4.161661.4240135-3.8628435 1.5448107-14.0735203 1.6178207-14.7386557.0730101-.6651354.7872092-3.2612384 3.5068305-3.2612384s12.0621165.3407795 12.9169069 0c1.5385742-.2736988 4.9290513-8.7430601 1.1692032-10.65166521-9.7877904-.21557098-14.4972506 0-14.9338792 0-.4366285 0-1.7836882-1.9194418.364398-3.31973542z"/></g></g><g transform="translate(58.366533 1.229325)"><path d="m12.8664924 17.2156703c1.8621448-.3368018 3.7548686-.5052027 5.6781713-.5052027 1.9398436 0 3.8889375.1713099 5.8472818.5139298l.000001-.0000059c.7177951.125581 1.2415006.7488654 1.2415006 1.4775632l-.0000281.5962551c0 .6973019-.4805269 1.3026425-1.1596434 1.4608532-2.0181171.4701517-3.9944877.7052276-5.9291119.7052276-1.9210173 0-3.8420346-.2317808-5.7630518-.6953422l-.0000025.0000102c-.673559-.1625367-1.1481422-.765264-1.1481422-1.4581564l-.0000273-.619054c0-.725463.5191721-1.3469601 1.2330525-1.4760779z" fill="#a32b22"/><path d="m7.01615156 36.1711214 3.23506694-30.02784904c.4563328-1.43825651 1.319635-2.15738476 2.5899065-2.15738476h13.7710635c1.806206.66789188 2.7440909 3.51696767 2.8136546 8.5472274.1043457 7.5453895-3.4473228 19.2250086-5.3826629 21.4315075-.1974786.9845569-5.1305378.5902794-7.8531901.5902794-1.8151015 0-3.7716336 0-5.8695963 0-.78078359.6257507-.83882502 1.1644906-.1741243 1.6162195.7189975.1109616 5.5824248.1109616 14.5902819 0 4.1686305-2.0307857 6.7997263-8.1213895 7.8932877-18.2718113 1.6403419-15.22563277-3.6968773-17.05858609-4.4409664-17.52921427-1.5506611-.6497397-18.4136753-.30849647-18.93990669 0-.51529383.30828268-6.70690381 3.88047688-8.05868242 16.42766827-1.35177861 12.5471914 1.19722012 18.6018554 3.37589249 20.2467223 1.07992164.2440353 1.89658014-.0470864 2.44997548-.873365z" fill="#333"/></g><g transform="translate(0 -.306384)"><path d="m30.8008748 25.0558152c1.2895088-.2299431 2.6474404-.3449146 4.0737948-.3449146 1.4745524 0 2.9528619.1228728 4.4349287.3686185l-.0000051.0000306c.7238319.1200206 1.254605.7460498 1.254605 1.4797646l-.000019.5071571c0 .7349305-.5324849 1.3616229-1.2577707 1.4802963-1.5560993.2546134-3.0333456.38192-4.4317389.38192-1.3571684 0-2.7143369-.1199113-4.0715054-.3597339l.0000028-.0000156c-.716621-.1266327-1.2389688-.7493761-1.2389688-1.4770996l.0000018-.5593191c0-.7268466.5211156-1.3491069 1.2366748-1.4767043z" fill="#333" transform="matrix(.99862953 .05233596 -.05233596 .99862953 1.451694 -1.798363)"/><path d="m29.9335852 25.6164973c1.7289634-.2584908 3.5558219-.3877362 5.4805755-.3877362 1.9763801 0 3.9580637.1362718 5.9450507.4088152l.0000007-.0000051c.7427064.1018727 1.2961668.7364302 1.2961668 1.4860907l.00003.4147797c0 .751243-.5557273 1.386632-1.3002796 1.4866708-2.0910651.2809573-4.0713879.4214359-5.9409686.4214359-1.8255134 0-3.6510268-.1339343-5.4765402-.401803l-.000002.0000136c-.7364328-.1080613-1.2822396-.7398023-1.2822396-1.4841212l.0000034-.4606319c0-.7427678.5435997-1.3736808 1.2782029-1.4835085z" fill="#333" transform="matrix(-.10452846 .9945219 -.9945219 -.10452846 66.570277 -5.264837)"/><path d="m26.3201661 38.3814947 1.6175334-19.4104016c.316226-.9297082.9774849-1.3945623 1.9837766-1.3945623h10.9092486c1.4518762.4317342 2.2845415 2.2734148 2.4979957 5.5250417.3201815 4.8774403-2.1257407 12.4273016-3.5894327 13.8536119-.1254472.6364307-4.0457607.3815645-6.2026087.3815645-1.4378986 0-2.9878367 0-4.6498141 0-.5988282.4044936-.6278489.7527422-.0870622 1.0447458.573073.0717271 4.4258138.0717271 11.5582223 0 3.2384053-1.3127269 5.1309983-5.2497743 5.677779-11.8111422.8201709-9.8420519-3.4656006-11.0268973-4.0698726-11.3311176-1.2488657-.4200004-14.5967734-.1994163-15.0039356 0-.3985044.199278-4.1611064 2.1500928-4.8369957 10.2607644-.6758893 8.1106717.5041283 12.3827863 2.2818214 13.4460502.8631811.1577476 1.5009626-.0304373 1.9133446-.5645548z" fill="#333" stroke="#333"/><g stroke="#a32b22" stroke-width="2"><circle cx="13.795587" cy="20.795587" r="5.5" transform="matrix(.97437006 -.22495105 .22495105 .97437006 -4.324409 3.636321)"/><circle cx="3.597963" cy="18.597963" fill="#a32b22" r="2" transform="matrix(.97437006 -.22495105 .22495105 .97437006 -4.091416 1.28603)"/><circle cx="6.597963" cy="10.597963" fill="#a32b22" r="2" transform="matrix(.97437006 -.22495105 .22495105 .97437006 -2.214918 1.755844)"/><circle cx="14.597963" cy="10.597963" fill="#a32b22" r="2" transform="matrix(.97437006 -.22495105 .22495105 .97437006 -2.009878 3.555452)"/></g><rect fill="#333" height="3" rx="1.5" width="24" x="24" y="5"/><rect fill="#333" height="12" rx="2.5" transform="matrix(.9945219 -.10452846 .10452846 .9945219 -.559139 3.330993)" width="5" x="29" y="1"/><rect fill="#333" height="11" rx="2" transform="matrix(.99254615 .12186934 -.12186934 .99254615 1.097759 -4.948193)" width="4" x="39" y="1"/></g></g></svg>